<svg id="图层_1" data-name="图层 1" xmlns="http://www.w3.org/2000/svg" xmlns:xlink="http://www.w3.org/1999/xlink" viewBox="0 0 168.43 174"><defs><style>.cls-1{fill:url(#未命名的渐变_446);}.cls-2{fill:url(#未命名的渐变_204);}.cls-3{fill:url(#未命名的渐变_426);}.cls-4{fill:#fff;}.cls-5{fill:none;stroke:#000;stroke-linecap:round;stroke-linejoin:round;stroke-width:3px;}.cls-6{fill:url(#未命名的渐变_448);}</style><linearGradient id="未命名的渐变_446" x1="30.98" y1="149.89" x2="137.87" y2="29.64" gradientUnits="userSpaceOnUse"><stop offset="0" stop-color="#b7d28d"/><stop offset="0.26" stop-color="#cbe2a7"/><stop offset="0.57" stop-color="#ddf0bf"/><stop offset="0.75" stop-color="#e4f6c8"/><stop offset="0.84" stop-color="#e7f8ce"/><stop offset="0.95" stop-color="#f0fcde"/><stop offset="1" stop-color="#f6ffe9"/></linearGradient><linearGradient id="未命名的渐变_204" x1="68.29" y1="189.27" x2="184.48" y2="67.24" gradientUnits="userSpaceOnUse"><stop offset="0" stop-color="#8d6ea4"/><stop offset="0.25" stop-color="#9072a6"/><stop offset="0.48" stop-color="#987cad"/><stop offset="0.69" stop-color="#a78eb8"/><stop offset="0.78" stop-color="#ae98be"/><stop offset="0.85" stop-color="#b19bc1"/><stop offset="0.9" stop-color="#bba3c9"/><stop offset="0.96" stop-color="#ccb1d7"/><stop offset="1" stop-color="#e2c2e8"/></linearGradient><linearGradient id="未命名的渐变_426" x1="125.93" y1="72.46" x2="187.09" y2="32.98" xlink:href="#未命名的渐变_204"/><linearGradient id="未命名的渐变_448" x1="27.68" y1="186.68" x2="45.54" y2="172.78" gradientUnits="userSpaceOnUse"><stop offset="0" stop-color="#8d6ea4"/><stop offset="0.41" stop-color="#a289b4"/><stop offset="0.71" stop-color="#ae98be"/><stop offset="0.79" stop-color="#b19bc0"/><stop offset="0.86" stop-color="#b9a5c6"/><stop offset="0.92" stop-color="#c6b6d1"/><stop offset="0.98" stop-color="#d9cee1"/><stop offset="1" stop-color="#e2dae8"/></linearGradient></defs><ellipse class="cls-1" cx="84.22" cy="90" rx="84.22" ry="84"/><path class="cls-2" d="M38.64,157.39c19,30.4,56.83,47.79,97.14,35.77a81.56,81.56,0,0,0,55-56c8.41-29.81.9-58.17-15.94-78.49a7.73,7.73,0,0,0-5.95-2.79h-1.19a136.36,136.36,0,0,0-129.81,95A7.81,7.81,0,0,0,38.64,157.39Z" transform="translate(-25.78 -23)"/><path class="cls-3" d="M182.33,34.23l-42-10.9a10.3,10.3,0,0,0-12.55,7.38l-1.47,5.65-2.17,8.35L120,60.81a10.24,10.24,0,0,0-.25,3.8A135.14,135.14,0,0,1,144,58a7,7,0,0,1,7.43-2.72l5.65,1.47a7,7,0,0,1,5,8.5l-1.59,6.13a10.29,10.29,0,0,0,7.38,12.55l1.46.38a10.3,10.3,0,0,0,12.55-7.38l4.18-16.1,2.17-8.35,1.46-5.64A10.3,10.3,0,0,0,182.33,34.23Z" transform="translate(-25.78 -23)"/><path class="cls-4" d="M115.59,154.87a26.33,26.33,0,1,1-47.44-22.75A68.73,68.73,0,0,0,115.59,154.87Z" transform="translate(-25.78 -23)"/><path class="cls-4" d="M126.19,152.78a21.5,21.5,0,1,0,32.91-27.61A56.11,56.11,0,0,1,126.19,152.78Z" transform="translate(-25.78 -23)"/><path class="cls-5" d="M68.15,132.12a68.73,68.73,0,0,0,47.44,22.75" transform="translate(-25.78 -23)"/><path class="cls-5" d="M159.1,125.17a56.11,56.11,0,0,1-32.91,27.61" transform="translate(-25.78 -23)"/><path class="cls-6" d="M28.53,176.26a10.4,10.4,0,1,0,17.88,0l-8.1-12.18a1,1,0,0,0-1.69,0Z" transform="translate(-25.78 -23)"/></svg>